<svg width="250" height="250" viewBox="0 0 250 250" fill="none" xmlns="http://www.w3.org/2000/svg">
  <defs>
    <linearGradient id="innerGlow" x1="125" y1="110" x2="125" y2="160" gradientUnits="userSpaceOnUse">
      <stop stop-color="#FFD54F" />
      <stop offset="1" stop-color="#FFB300" />
    </linearGradient>
  </defs>
  
  <g transform="translate(25, 25)">
    <path d="M20 160L100 190L180 160L180 130L100 160L20 130L20 160Z" fill="#37474F"/>
    <path d="M20 130L100 160L100 180L20 150L20 130Z" fill="#455A64"/>
    <path d="M180 130L100 160L100 180L180 150L180 130Z" fill="#546E7A"/>

    <path d="M20 110L100 140L180 110L180 80L100 110L20 80L20 110Z" fill="#37474F"/>
    <path d="M20 80L100 110L100 130L20 100L20 80Z" fill="#455A64"/>
    <path d="M100 110L180 80L180 130L100 160V110Z" fill="url(#innerGlow)"/>
    
    <g opacity="0.8">
        <path d="M105 115L175 88V95L105 122V115Z" fill="#FFF59D"/>
        <line x1="110" y1="118" x2="140" y2="107" stroke="#F57F17" stroke-width="1.5"/>
        <line x1="110" y1="122" x2="160" y2="103" stroke="#F57F17" stroke-width="1.5"/>
        <path d="M105 128L175 101V108L105 135V128Z" fill="#FFF176"/>
        <line x1="110" y1="131" x2="135" y2="121" stroke="#F57F17" stroke-width="1.5"/>
        <line x1="110" y1="135" x2="155" y2="118" stroke="#F57F17" stroke-width="1.5"/>
        <path d="M105 141L175 114V121L105 148V141Z" fill="#FFEE58"/>
        <line x1="110" y1="144" x2="145" y2="131" stroke="#F57F17" stroke-width="1.5"/>
    </g>

    <path d="M20 60L100 90L180 60L180 30L100 60L20 30L20 60Z" fill="#37474F"/>
    <path d="M20 30L100 60L100 80L20 50L20 30Z" fill="#455A64"/>
    <path d="M180 30L100 60L100 80L180 50L180 30Z" fill="#546E7A"/>
    <path d="M20 30L100 0L180 30L100 60L20 30Z" fill="#607D8B"/>

  </g>
  
  <text x="125" y="235" font-family="Arial, sans-serif" font-size="24" font-weight="bold" fill="#263238" text-anchor="middle">ContainerDepth</text>
</svg>